# xmcd
#
# Track frame offsets: 
#        150
#        15662
#        35922
#        74331
#        94100
#        114045
#        130319
#        145186
#        161363
#        180235
#        216793
#
# Disc length: 3097 seconds
#
# Revision: 0
# Processed by: cddbd v1.5.2PL0 Copyright (c) Steve Scherf et al.
# Submitted via: ExactAudioCopy v1.0b3
#
DISCID=8f0c170b
DTITLE=George Thorogood And The Delaware Destroyers - George Thorogood
DTITLE=And The Delaware Destroyers
DYEAR=2015
DGENRE=Blues Rock
TTITLE0=You Got To Lose
TTITLE1=Madison Blues
TTITLE2=One Bourbon, One Scotch And One Beer
TTITLE3=Kind Hearted Woman
TTITLE4=Ride On Josephine
TTITLE5=Can't Stop Lovin'
TTITLE6=Homesick Boy
TTITLE7=John Hardy
TTITLE8=I'll Change My Style
TTITLE9=Delaware Slide
TTITLE10=Goodbye Baby
EXTD=
EXTT0=
EXTT1=
EXTT2=
EXTT3=
EXTT4=
EXTT5=
EXTT6=
EXTT7=
EXTT8=
EXTT9=
EXTT10=
PLAYORDER=
